# xmcd CD database file
#
# Track frame offsets:
#	150
#	11456
#	25392
#	43321
#	58192
#	72058
#	84230
#	99409
#	113577
#	126979
#	139915
#	154969
#	176697
#	193532
#
# Disc length: 2784 seconds
#
# Revision: 0
# Processed by: cddbd v1.5.1PL2 Copyright (c) Steve Scherf et al.
# Submitted via: CDex 1.51
#
DISCID=bd0ade0e
DTITLE=DALE HOOPER - LEGENDS and FRIENDS
DYEAR=1900
DGENRE=Country
TTITLE0=RISE AND SHINE
TTITLE1=GONE GONE GONE
TTITLE2=MIRACLES ARE TRUE
TTITLE3=LOOKIN' FOR AN OLD FRIEND
TTITLE4=SOMETIMES LATE AT NIGHT (WITH JENNIFER BLACK )
TTITLE5=WINGS OF A DOVE
TTITLE6=LOVE BUG
TTITLE7=MUDDY WATER
TTITLE8=SIX WHITE HORSES
TTITLE9=WHO'S GONNA FILL THEIR SHOES
TTITLE10=THOSE PEOPLE WHO ARE HEROES
TTITLE11=DON'T TELL MAMA
TTITLE12=CHRISTMAS WITHOUT YOU
TTITLE13=TWINKLE TWINKLE
EXTD=
EXTT0=
EXTT1=
EXTT2=
EXTT3=
EXTT4=
EXTT5=
EXTT6=
EXTT7=
EXTT8=
EXTT9=
EXTT10=
EXTT11=
EXTT12=
EXTT13=
PLAYORDER=
